<?xml version="1.0" standalone="no"?>
<!DOCTYPE svg PUBLIC "-//W3C//DTD SVG 20010904//EN"
 "http://www.w3.org/TR/2001/REC-SVG-20010904/DTD/svg10.dtd">
<svg version="1.0" xmlns="http://www.w3.org/2000/svg"
 width="225.000000pt" height="225.000000pt" viewBox="0 0 225.000000 225.000000"
 preserveAspectRatio="xMidYMid meet">
<metadata>
Created by potrace 1.14, written by Peter Selinger 2001-2017
</metadata>
<g transform="translate(0.000000,225.000000) scale(0.100000,-0.100000)"
fill="#000000" stroke="none">
<path d="M523 2150 c-57 -12 -173 -61 -233 -100 -76 -49 -174 -161 -219 -251
-58 -116 -74 -202 -69 -368 4 -119 9 -148 36 -228 40 -117 84 -204 163 -324
82 -123 340 -382 499 -501 153 -114 405 -278 427 -278 26 0 356 224 493 335
142 114 336 313 412 420 108 154 175 299 203 437 23 112 16 327 -12 408 -42
116 -84 182 -167 265 -134 134 -284 195 -481 195 -158 0 -295 -44 -401 -127
l-50 -40 -50 40 c-61 50 -158 95 -243 113 -71 15 -240 17 -308 4z m97 -234 c0
-3 -13 -11 -30 -20 -19 -9 -30 -11 -30 -4 0 6 -3 8 -7 4 -5 -4 -7 -10 -5 -12
1 -2 -30 -33 -70 -68 -40 -35 -80 -74 -88 -86 -8 -12 -20 -28 -26 -34 -5 -6
-29 -45 -51 -86 -66 -119 -68 -121 -69 -56 -1 31 3 56 7 56 5 0 9 7 9 15 0 43
113 204 143 205 7 1 28 14 47 30 19 17 41 30 50 30 9 0 20 4 26 9 14 14 94 28
94 17z m1409 -580 c-10 -55 -19 -80 -69 -186 -26 -55 -39 -76 -67 -108 -31
-33 -29 -19 8 69 56 136 98 270 99 316 0 12 6 23 13 26 19 6 27 -52 16 -117z"/>
</g>
</svg>
